<svg width="96" height="36" viewBox="0 0 96 36" fill="none" xmlns="http://www.w3.org/2000/svg">
<circle cx="7" cy="8" r="7" fill="url(#paint0_linear_2_36)"/>
<circle cx="7" cy="18" r="7" fill="url(#paint1_linear_2_36)"/>
<circle cx="7" cy="28" r="7" fill="url(#paint2_linear_2_36)"/>
<path d="M9 1.2V34.8C9 34.9105 9.08954 35 9.2 35H14.3C14.4105 35 14.5 34.9105 14.5 34.8V9.68841C14.5 9.48819 14.7616 9.41219 14.8689 9.58124L30.9411 34.9072C30.9778 34.965 31.0415 35 31.11 35H35.8C35.9105 35 36 34.9105 36 34.8V1.2C36 1.08954 35.9105 1 35.8 1H24.2C24.0895 1 24 1.08954 24 1.2V5.3C24 5.41046 24.0895 5.5 24.2 5.5H30.8C30.9105 5.5 31 5.58954 31 5.7V25.8228C31 26.0221 30.7404 26.0987 30.6321 25.9314L14.5591 1.09135C14.5223 1.03439 14.459 1 14.3912 1H9.2C9.08954 1 9 1.08954 9 1.2Z" fill="black"/>
<path d="M56.3 1H38.2C38.0895 1 38 1.08954 38 1.2V5.3C38 5.41046 38.0895 5.5 38.2 5.5H56.3C56.4105 5.5 56.5 5.41046 56.5 5.3V1.2C56.5 1.08954 56.4105 1 56.3 1Z" fill="black"/>
<path d="M50.8 15H38.2C38.0895 15 38 15.0895 38 15.2V20.3C38 20.4105 38.0895 20.5 38.2 20.5H50.8C50.9105 20.5 51 20.4105 51 20.3V15.2C51 15.0895 50.9105 15 50.8 15Z" fill="black"/>
<path d="M76.1062 1H82.3C82.4105 1 82.5 1.08954 82.5 1.2V34.8C82.5 34.9105 82.4105 35 82.3 35H77.7C77.5895 35 77.5 34.9105 77.5 34.8V8.15561C77.5 7.95816 77.2443 7.88014 77.1341 8.04397L59.0594 34.9116C59.0223 34.9669 58.9601 35 58.8935 35H56.3H53.3768H38.2C38.0895 35 38 34.9105 38 34.8V30.2C38 30.0895 38.0895 30 38.2 30H56.3C56.3258 30 56.3504 30.0049 56.373 30.0138L75.9405 1.08794C75.9777 1.03295 76.0398 1 76.1062 1Z" fill="black"/>
<path d="M53.3768 35H58.8935C58.9601 35 59.0223 34.9669 59.0594 34.9116L77.1341 8.04397C77.2443 7.88014 77.5 7.95816 77.5 8.15561V34.8C77.5 34.9105 77.5895 35 77.7 35H82.3C82.4105 35 82.5 34.9105 82.5 34.8V1.2C82.5 1.08954 82.4105 1 82.3 1H76.1062C76.0398 1 75.9777 1.03295 75.9405 1.08794L53.2111 34.6879C53.1213 34.8208 53.2164 35 53.3768 35ZM56.5 30.2V34.8C56.5 34.9105 56.4105 35 56.3 35H38.2C38.0895 35 38 34.9105 38 34.8V30.2C38 30.0895 38.0895 30 38.2 30H56.3C56.4105 30 56.5 30.0895 56.5 30.2ZM38.2 20.5H50.8C50.9105 20.5 51 20.4105 51 20.3V15.2C51 15.0895 50.9105 15 50.8 15H38.2C38.0895 15 38 15.0895 38 15.2V20.3C38 20.4105 38.0895 20.5 38.2 20.5ZM38.2 5.5H56.3C56.4105 5.5 56.5 5.41046 56.5 5.3V1.2C56.5 1.08954 56.4105 1 56.3 1H38.2C38.0895 1 38 1.08954 38 1.2V5.3C38 5.41046 38.0895 5.5 38.2 5.5ZM14.5 34.8V9.68841C14.5 9.48819 14.7616 9.41219 14.8689 9.58124L30.9411 34.9072C30.9778 34.965 31.0415 35 31.11 35H35.8C35.9105 35 36 34.9105 36 34.8V1.2C36 1.08954 35.9105 1 35.8 1H24.2C24.0895 1 24 1.08954 24 1.2V5.3C24 5.41046 24.0895 5.5 24.2 5.5H30.8C30.9105 5.5 31 5.58954 31 5.7V25.8228C31 26.0221 30.7404 26.0987 30.6321 25.9314L14.5591 1.09135C14.5223 1.03439 14.459 1 14.3912 1H9.2C9.08954 1 9 1.08954 9 1.2V34.8C9 34.9105 9.08954 35 9.2 35H14.3C14.4105 35 14.5 34.9105 14.5 34.8Z" stroke="black" stroke-width="0.5"/>
<path d="M9 1.2V34.8C9 34.9105 9.08954 35 9.2 35H14.3C14.4105 35 14.5 34.9105 14.5 34.8V9.68841C14.5 9.48819 14.7616 9.41219 14.8689 9.58124L30.9411 34.9072C30.9778 34.965 31.0415 35 31.11 35H35.8C35.9105 35 36 34.9105 36 34.8V1.2C36 1.08954 35.9105 1 35.8 1H24.2C24.0895 1 24 1.08954 24 1.2V5.3C24 5.41046 24.0895 5.5 24.2 5.5H30.8C30.9105 5.5 31 5.58954 31 5.7V25.8228C31 26.0221 30.7404 26.0987 30.6321 25.9314L14.5591 1.09135C14.5223 1.03439 14.459 1 14.3912 1H9.2C9.08954 1 9 1.08954 9 1.2Z" fill="black"/>
<path d="M56.3 1H38.2C38.0895 1 38 1.08954 38 1.2V5.3C38 5.41046 38.0895 5.5 38.2 5.5H56.3C56.4105 5.5 56.5 5.41046 56.5 5.3V1.2C56.5 1.08954 56.4105 1 56.3 1Z" fill="black"/>
<path d="M50.8 15H38.2C38.0895 15 38 15.0895 38 15.2V20.3C38 20.4105 38.0895 20.5 38.2 20.5H50.8C50.9105 20.5 51 20.4105 51 20.3V15.2C51 15.0895 50.9105 15 50.8 15Z" fill="black"/>
<path d="M84.5 1.2V34.8C84.5 34.9105 84.5895 35 84.7 35H89.3C89.4105 35 89.5 34.9105 89.5 34.8V5.7C89.5 5.58954 89.5895 5.5 89.7 5.5H95.3C95.4105 5.5 95.5 5.41046 95.5 5.3V1.2C95.5 1.08954 95.4105 1 95.3 1H84.7C84.5895 1 84.5 1.08954 84.5 1.2Z" fill="black"/>
<path d="M38 35V30.2C38 30.0895 38.0895 30 38.2 30H56.5M89.5 34.8V5.7C89.5 5.58954 89.5895 5.5 89.7 5.5H95.3C95.4105 5.5 95.5 5.41046 95.5 5.3V1.2C95.5 1.08954 95.4105 1 95.3 1H84.7C84.5895 1 84.5 1.08954 84.5 1.2V34.8C84.5 34.9105 84.5895 35 84.7 35H89.3C89.4105 35 89.5 34.9105 89.5 34.8ZM38.2 20.5H50.8C50.9105 20.5 51 20.4105 51 20.3V15.2C51 15.0895 50.9105 15 50.8 15H38.2C38.0895 15 38 15.0895 38 15.2V20.3C38 20.4105 38.0895 20.5 38.2 20.5ZM38.2 5.5H56.3C56.4105 5.5 56.5 5.41046 56.5 5.3V1.2C56.5 1.08954 56.4105 1 56.3 1H38.2C38.0895 1 38 1.08954 38 1.2V5.3C38 5.41046 38.0895 5.5 38.2 5.5ZM14.5 34.8V9.68841C14.5 9.48819 14.7616 9.41219 14.8689 9.58124L30.9411 34.9072C30.9778 34.965 31.0415 35 31.11 35H35.8C35.9105 35 36 34.9105 36 34.8V1.2C36 1.08954 35.9105 1 35.8 1H24.2C24.0895 1 24 1.08954 24 1.2V5.3C24 5.41046 24.0895 5.5 24.2 5.5H30.8C30.9105 5.5 31 5.58954 31 5.7V25.8228C31 26.0221 30.7404 26.0987 30.6321 25.9314L14.5591 1.09135C14.5223 1.03439 14.459 1 14.3912 1H9.2C9.08954 1 9 1.08954 9 1.2V34.8C9 34.9105 9.08954 35 9.2 35H14.3C14.4105 35 14.5 34.9105 14.5 34.8Z" stroke="black" stroke-width="0.5"/>
<g filter="url(#filter0_f_2_36)">
<path d="M4.20469 30.874C4.36968 30.7172 4.50373 30.5232 4.61613 30.2895C4.71585 30.0822 5.20257 30.1006 5.29664 30.3105C5.40935 30.562 5.55856 30.7686 5.75857 30.9314C5.93669 31.0765 5.97329 31.7677 5.802 31.9207C5.63754 32.0676 5.50492 32.2368 5.39819 32.4253C5.28186 32.6307 4.63007 32.65 4.51547 32.4436C4.41515 32.2629 4.29871 32.1018 4.16244 31.9617C4.00245 31.7972 4.03836 31.0321 4.20469 30.874Z" fill="#00FF08" fill-opacity="0.94"/>
<path d="M4.20469 30.874C4.36968 30.7172 4.50373 30.5232 4.61613 30.2895C4.71585 30.0822 5.20257 30.1006 5.29664 30.3105C5.40935 30.562 5.55856 30.7686 5.75857 30.9314C5.93669 31.0765 5.97329 31.7677 5.802 31.9207C5.63754 32.0676 5.50492 32.2368 5.39819 32.4253C5.28186 32.6307 4.63007 32.65 4.51547 32.4436C4.41515 32.2629 4.29871 32.1018 4.16244 31.9617C4.00245 31.7972 4.03836 31.0321 4.20469 30.874Z" stroke="#00FF08" stroke-opacity="0.95" stroke-width="0.5"/>
</g>
<path d="M38 25.5V29.8C38 29.9105 38.0895 30 38.2 30H41.8C41.9105 30 42 29.9105 42 29.8V22.2C42 22.0895 41.9105 22 41.8 22H39.2735H38.2C38.0895 22 38 22.0895 38 22.2V25.5Z" fill="black" stroke="black" stroke-width="0.5"/>
<path d="M38 10.5V14.8C38 14.9105 38.0895 15 38.2 15H41.8C41.9105 15 42 14.9105 42 14.8V7.2C42 7.08954 41.9105 7 41.8 7H39.2735H38.2C38.0895 7 38 7.08954 38 7.2V10.5Z" fill="black" stroke="black" stroke-width="0.5"/>
<defs>
<filter id="filter0_f_2_36" x="0.809456" y="26.8932" width="8.35356" height="8.94598" filterUnits="userSpaceOnUse" color-interpolation-filters="sRGB">
<feFlood flood-opacity="0" result="BackgroundImageFix"/>
<feBlend mode="normal" in="SourceGraphic" in2="BackgroundImageFix" result="shape"/>
<feGaussianBlur stdDeviation="1.5" result="effect1_foregroundBlur_2_36"/>
</filter>
<linearGradient id="paint0_linear_2_36" x1="0" y1="8" x2="14" y2="8" gradientUnits="userSpaceOnUse">
<stop offset="0.372963" stop-color="#EF423F"/>
<stop offset="0.835114" stop-color="#480706"/>
</linearGradient>
<linearGradient id="paint1_linear_2_36" x1="0" y1="18" x2="14" y2="18" gradientUnits="userSpaceOnUse">
<stop offset="0.372963" stop-color="#FADA3A"/>
<stop offset="0.835114" stop-color="#766511"/>
</linearGradient>
<linearGradient id="paint2_linear_2_36" x1="3" y1="28" x2="14" y2="28" gradientUnits="userSpaceOnUse">
<stop offset="0.248" stop-color="#21B354"/>
<stop offset="0.648" stop-color="#0E4D24"/>
</linearGradient>
</defs>
</svg>
